<svg xmlns="http://www.w3.org/2000/svg" viewBox="0 0 1000 1000">
   <path d="M 0,500 C 0,150 150,0 500,0 C 850,0 1000 150,1000 500 C 1000,850 850,1000 500,1000 C 150,1000 0,850 0,500" />
   <g transform="rotate(45 500 500)" stroke="#fff" stroke-width="30" stroke-linejoin="round" stroke-linecap="round">
      <path fill="#fff" d="M 375,350 C 350,350 350,300 375,300 C 400,300 400,275 400,250 L 400,225 C 400,100 600,100 600,225 L 600,250 C 600,275 600,300 625,300 C 650,300 650,350 625,350 L 375,350z M 400,650 L 600,450 L 600,500 L 550,500 L 550,550 L 600,550 L 600,575 L 550,575 L 550,625 L 600,625 L 600,650 L 550,650 L 550,700 L 600,700 L 600,725 C 600,800 525,775 525,825 L 525,850 L 475,850 L 475,825 C 475,775 400,800 400,725 L 400,650z" />
      <path fill="none" d="M 400,325 L 600,325 L 600,450 L 400,650 L 400,325z" />
   </g>
</svg>
